<?xml version="1.0" standalone="no"?>
<svg xmlns:xlink="http://www.w3.org/1999/xlink" id="wave" style="transform:rotate(0deg); transition: 0.3s" viewBox="0 0 1440 340" version="1.1" xmlns="http://www.w3.org/2000/svg"><defs><linearGradient id="sw-gradient-0" x1="0" x2="0" y1="1" y2="0"><stop stop-color="rgba(90, 110, 90, 1)" offset="0%"/><stop stop-color="rgba(245, 194, 101, 1)" offset="100%"/></linearGradient></defs><path style="transform:translate(0, 0px); opacity:1" fill="url(#sw-gradient-0)" d="M0,170L80,187C160,204,320,238,480,209.7C640,181,800,91,960,79.3C1120,68,1280,136,1440,164.3C1600,193,1760,181,1920,158.7C2080,136,2240,102,2400,113.3C2560,125,2720,181,2880,215.3C3040,249,3200,261,3360,260.7C3520,261,3680,249,3840,243.7C4000,238,4160,238,4320,221C4480,204,4640,170,4800,130.3C4960,91,5120,45,5280,73.7C5440,102,5600,204,5760,249.3C5920,295,6080,283,6240,249.3C6400,215,6560,159,6720,141.7C6880,125,7040,147,7200,141.7C7360,136,7520,102,7680,107.7C7840,113,8000,159,8160,175.7C8320,193,8480,181,8640,181.3C8800,181,8960,193,9120,181.3C9280,170,9440,136,9600,113.3C9760,91,9920,79,10080,113.3C10240,147,10400,227,10560,260.7C10720,295,10880,283,11040,266.3C11200,249,11360,227,11440,215.3L11520,204L11520,340L11440,340C11360,340,11200,340,11040,340C10880,340,10720,340,10560,340C10400,340,10240,340,10080,340C9920,340,9760,340,9600,340C9440,340,9280,340,9120,340C8960,340,8800,340,8640,340C8480,340,8320,340,8160,340C8000,340,7840,340,7680,340C7520,340,7360,340,7200,340C7040,340,6880,340,6720,340C6560,340,6400,340,6240,340C6080,340,5920,340,5760,340C5600,340,5440,340,5280,340C5120,340,4960,340,4800,340C4640,340,4480,340,4320,340C4160,340,4000,340,3840,340C3680,340,3520,340,3360,340C3200,340,3040,340,2880,340C2720,340,2560,340,2400,340C2240,340,2080,340,1920,340C1760,340,1600,340,1440,340C1280,340,1120,340,960,340C800,340,640,340,480,340C320,340,160,340,80,340L0,340Z"/></svg>