<?xml version="1.0" standalone="no"?>
<svg xmlns:xlink="http://www.w3.org/1999/xlink" id="wave" style="transform:rotate(180deg); transition: 0.3s" viewBox="0 0 1440 490" version="1.1" xmlns="http://www.w3.org/2000/svg"><defs><linearGradient id="sw-gradient-0" x1="0" x2="0" y1="1" y2="0"><stop stop-color="rgba(150, 120, 90, 1)" offset="0%"/><stop stop-color="rgba(185, 175, 161, 1)" offset="100%"/></linearGradient></defs><path style="transform:translate(0, 0px); opacity:1" fill="url(#sw-gradient-0)" d="M0,196L80,171.5C160,147,320,98,480,106.2C640,114,800,180,960,187.8C1120,196,1280,147,1440,179.7C1600,212,1760,327,1920,375.7C2080,425,2240,408,2400,343C2560,278,2720,163,2880,106.2C3040,49,3200,49,3360,65.3C3520,82,3680,114,3840,155.2C4000,196,4160,245,4320,269.5C4480,294,4640,294,4800,294C4960,294,5120,294,5280,318.5C5440,343,5600,392,5760,367.5C5920,343,6080,245,6240,204.2C6400,163,6560,180,6720,179.7C6880,180,7040,163,7200,138.8C7360,114,7520,82,7680,122.5C7840,163,8000,278,8160,334.8C8320,392,8480,392,8640,383.8C8800,376,8960,359,9120,367.5C9280,376,9440,408,9600,416.5C9760,425,9920,408,10080,343C10240,278,10400,163,10560,98C10720,33,10880,16,11040,57.2C11200,98,11360,196,11440,245L11520,294L11520,490L11440,490C11360,490,11200,490,11040,490C10880,490,10720,490,10560,490C10400,490,10240,490,10080,490C9920,490,9760,490,9600,490C9440,490,9280,490,9120,490C8960,490,8800,490,8640,490C8480,490,8320,490,8160,490C8000,490,7840,490,7680,490C7520,490,7360,490,7200,490C7040,490,6880,490,6720,490C6560,490,6400,490,6240,490C6080,490,5920,490,5760,490C5600,490,5440,490,5280,490C5120,490,4960,490,4800,490C4640,490,4480,490,4320,490C4160,490,4000,490,3840,490C3680,490,3520,490,3360,490C3200,490,3040,490,2880,490C2720,490,2560,490,2400,490C2240,490,2080,490,1920,490C1760,490,1600,490,1440,490C1280,490,1120,490,960,490C800,490,640,490,480,490C320,490,160,490,80,490L0,490Z"/></svg>