<?xml version="1.0" standalone="no"?>
<svg xmlns:xlink="http://www.w3.org/1999/xlink" id="wave" style="transform:rotate(0deg); transition: 0.3s" viewBox="0 0 1440 380" version="1.1" xmlns="http://www.w3.org/2000/svg"><defs><linearGradient id="sw-gradient-0" x1="0" x2="0" y1="1" y2="0"><stop stop-color="rgba(74, 74, 74, 1)" offset="0%"/><stop stop-color="rgba(182.463, 182.463, 182.463, 1)" offset="100%"/></linearGradient></defs><path style="transform:translate(0, 0px); opacity:1" fill="url(#sw-gradient-0)" d="M0,190L80,190C160,190,320,190,480,158.3C640,127,800,63,960,38C1120,13,1280,25,1440,57C1600,89,1760,139,1920,133C2080,127,2240,63,2400,50.7C2560,38,2720,76,2880,95C3040,114,3200,114,3360,107.7C3520,101,3680,89,3840,76C4000,63,4160,51,4320,82.3C4480,114,4640,190,4800,240.7C4960,291,5120,317,5280,278.7C5440,241,5600,139,5760,88.7C5920,38,6080,38,6240,38C6400,38,6560,38,6720,76C6880,114,7040,190,7200,196.3C7360,203,7520,139,7680,139.3C7840,139,8000,203,8160,228C8320,253,8480,241,8640,196.3C8800,152,8960,76,9120,69.7C9280,63,9440,127,9600,133C9760,139,9920,89,10080,88.7C10240,89,10400,139,10560,177.3C10720,215,10880,241,11040,234.3C11200,228,11360,190,11440,171L11520,152L11520,380L11440,380C11360,380,11200,380,11040,380C10880,380,10720,380,10560,380C10400,380,10240,380,10080,380C9920,380,9760,380,9600,380C9440,380,9280,380,9120,380C8960,380,8800,380,8640,380C8480,380,8320,380,8160,380C8000,380,7840,380,7680,380C7520,380,7360,380,7200,380C7040,380,6880,380,6720,380C6560,380,6400,380,6240,380C6080,380,5920,380,5760,380C5600,380,5440,380,5280,380C5120,380,4960,380,4800,380C4640,380,4480,380,4320,380C4160,380,4000,380,3840,380C3680,380,3520,380,3360,380C3200,380,3040,380,2880,380C2720,380,2560,380,2400,380C2240,380,2080,380,1920,380C1760,380,1600,380,1440,380C1280,380,1120,380,960,380C800,380,640,380,480,380C320,380,160,380,80,380L0,380Z"/></svg>