<?xml version="1.0" standalone="no"?>
<svg xmlns:xlink="http://www.w3.org/1999/xlink" id="wave" style="transform:rotate(0deg); transition: 0.3s" viewBox="0 0 1440 340" version="1.1" xmlns="http://www.w3.org/2000/svg"><defs><linearGradient id="sw-gradient-0" x1="0" x2="0" y1="1" y2="0"><stop stop-color="rgba(90, 110, 90, 1)" offset="0%"/><stop stop-color="rgba(245, 194, 101, 1)" offset="100%"/></linearGradient></defs><path style="transform:translate(0, 0px); opacity:1" fill="url(#sw-gradient-0)" d="M0,34L80,73.7C160,113,320,193,480,192.7C640,193,800,113,960,79.3C1120,45,1280,57,1440,56.7C1600,57,1760,45,1920,39.7C2080,34,2240,34,2400,28.3C2560,23,2720,11,2880,51C3040,91,3200,181,3360,226.7C3520,272,3680,272,3840,232.3C4000,193,4160,113,4320,107.7C4480,102,4640,170,4800,209.7C4960,249,5120,261,5280,266.3C5440,272,5600,272,5760,255C5920,238,6080,204,6240,164.3C6400,125,6560,79,6720,62.3C6880,45,7040,57,7200,62.3C7360,68,7520,68,7680,68C7840,68,8000,68,8160,62.3C8320,57,8480,45,8640,68C8800,91,8960,147,9120,158.7C9280,170,9440,136,9600,136C9760,136,9920,170,10080,192.7C10240,215,10400,227,10560,209.7C10720,193,10880,147,11040,141.7C11200,136,11360,170,11440,187L11520,204L11520,340L11440,340C11360,340,11200,340,11040,340C10880,340,10720,340,10560,340C10400,340,10240,340,10080,340C9920,340,9760,340,9600,340C9440,340,9280,340,9120,340C8960,340,8800,340,8640,340C8480,340,8320,340,8160,340C8000,340,7840,340,7680,340C7520,340,7360,340,7200,340C7040,340,6880,340,6720,340C6560,340,6400,340,6240,340C6080,340,5920,340,5760,340C5600,340,5440,340,5280,340C5120,340,4960,340,4800,340C4640,340,4480,340,4320,340C4160,340,4000,340,3840,340C3680,340,3520,340,3360,340C3200,340,3040,340,2880,340C2720,340,2560,340,2400,340C2240,340,2080,340,1920,340C1760,340,1600,340,1440,340C1280,340,1120,340,960,340C800,340,640,340,480,340C320,340,160,340,80,340L0,340Z"/></svg>